<svg xmlns="http://www.w3.org/2000/svg" xmlns:xlink="http://www.w3.org/1999/xlink" version="1.1" id="Layer_1" x="0px" y="0px" viewBox="0 0 544.252 807.874" enable-background="new 0 0 544.252 807.874" xml:space="preserve"><g><path fill="#7F7F7F" d="M292.068 764.143c0-10.982-8.949-19.919-19.942-19.919c-10.997 0-19.942 8.937-19.942 19.9 c0 11 8.9 19.9 19.9 19.919C283.119 784.1 292.1 775.1 292.1 764.143z"/><g><path fill="none" d="M294.336 764.143c0-12.23-9.963-22.182-22.208-22.182c-12.248 0-22.21 9.951-22.21 22.2 c0 12.2 10 22.2 22.2 22.184C284.373 786.3 294.3 776.4 294.3 764.143z"/><path fill="#7F7F7F" d="M541.418 776.068V31.806c0-15.936-13.051-28.971-29.006-28.971H31.84 c-15.952 0-29.006 13.035-29.006 28.971v744.263c0 15.9 13.1 29 29 28.971h480.572 C528.367 805 541.4 792 541.4 776.068z M31.706 723.77V84.104h480.839V723.77H31.706z M249.917 764.1 c0-12.23 9.962-22.182 22.21-22.182c12.246 0 22.2 10 22.2 22.182c0 12.232-9.963 22.184-22.208 22.2 C259.879 786.3 249.9 776.4 249.9 764.143z"/></g></g></svg>
