<svg xmlns="http://www.w3.org/2000/svg" xmlns:xlink="http://www.w3.org/1999/xlink" version="1.1" id="Layer_1" x="0px" y="0px" viewBox="0 0 396.85 807.874" enable-background="new 0 0 396.85 807.874" xml:space="preserve"><g><path fill="none" d="M198.893 741.959c-12.233 0-22.185 9.952-22.185 22.182c0 12.2 10 22.2 22.2 22.2 c12.229 0 22.183-9.952 22.183-22.185C221.076 751.9 211.1 742 198.9 741.959z M198.893 784.1 c-10.984 0-19.92-8.936-19.92-19.92c0-10.982 8.936-19.918 19.92-19.918c10.98 0 19.9 8.9 19.9 19.9 C218.81 775.1 209.9 784.1 198.9 784.061z"/><path fill="#7F8181" d="M198.893 744.223c-10.984 0-19.92 8.936-19.92 19.918c0 11 8.9 19.9 19.9 19.9 c10.98 0 19.917-8.936 19.917-19.92C218.81 753.2 209.9 744.2 198.9 744.223z"/><path fill="#7F8181" d="M366.146 2.836H30.705c-15.934 0-28.972 13.036-28.972 28.971v744.261 c0 15.9 13 29 29 28.971h335.441c15.935 0 28.971-13.037 28.971-28.971V31.807 C395.117 15.9 382.1 2.8 366.1 2.836z M198.893 786.325c-12.233 0-22.185-9.952-22.185-22.185 c0-12.229 9.951-22.182 22.185-22.182c12.229 0 22.2 10 22.2 22.182C221.076 776.4 211.1 786.3 198.9 786.325z M373.28 723.802H23.57V84.096H373.28V723.802z"/></g></svg>