<?xml version="1.0" encoding="utf-8"?>
<!-- Generator: Adobe Illustrator 16.0.0, SVG Export Plug-In . SVG Version: 6.00 Build 0)  -->
<!DOCTYPE svg PUBLIC "-//W3C//DTD SVG 1.0//EN" "http://www.w3.org/TR/2001/REC-SVG-20010904/DTD/svg10.dtd" [
	<!ENTITY ns_flows "http://ns.adobe.com/Flows/1.0/">
	<!ENTITY ns_extend "http://ns.adobe.com/Extensibility/1.0/">
	<!ENTITY ns_ai "http://ns.adobe.com/AdobeIllustrator/10.0/">
	<!ENTITY ns_graphs "http://ns.adobe.com/Graphs/1.0/">
]>
<svg version="1.0" id="Layer_1" xmlns:x="&ns_extend;" xmlns:i="&ns_ai;" xmlns:graph="&ns_graphs;"
	 xmlns="http://www.w3.org/2000/svg" xmlns:xlink="http://www.w3.org/1999/xlink" xmlns:a="http://ns.adobe.com/AdobeSVGViewerExtensions/3.0/"
	 x="0px" y="0px" width="390.101px" height="125.128px" viewBox="0 0 390.101 125.128" enable-background="new 0 0 390.101 125.128"
	 xml:space="preserve">
<path fill="#fff" d="M33.921,111.382c1.262,0.133,2.456,0.158,3.569,0.158c1.109,0,2.327-0.037,3.642-0.158
	c3.703-0.322,6.095-5.833,6.6-7.269c7.403-18.976,27.699-71.048,27.699-71.048c-1.421-0.202-2.824-0.355-4.241-0.455
	c-1.424-0.1-3.8-0.154-3.8-0.154s-6.779,0.407-7.895,0.609l-21.396,64.21l-21.25-64.21c-1.119-0.202-2.456-0.355-4.023-0.455
	c-1.572-0.1-3.013-0.154-4.328-0.154c-1.214,0-2.582,0.054-4.096,0.154c-1.519,0.1-2.99,0.253-4.402,0.455
	c0,0,20.105,51.818,27.506,70.919C28.408,105.895,30.82,111.066,33.921,111.382"/>
<path fill-rule="evenodd" clip-rule="evenodd" fill="#fff" d="M388.667,33.094c-1.058-0.131-2.115-0.261-3.171-0.34
	c-1.422-0.105-2.679-0.15-3.795-0.15c-1.319,0-2.679,0.045-4.099,0.15c-1.414,0.103-2.681,0.252-3.797,0.455l-21.4,44.825
	l-21.25-44.822c-1.111-0.199-2.451-0.355-4.023-0.458c-1.568-0.098-3.009-0.15-4.322-0.15c-1.217,0-2.58,0.052-4.098,0.15
	c-1.145,0.08-2.232,0.213-3.32,0.345c-0.821,0.046-1.33,0.122-1.33,0.122v77.999c0,0,7.461,2.55,14.871,0V60.576
	c0,0,8.773,16.443,12.884,24.167c0.899,1.912,3.319,7.078,6.418,7.403c1.264,0.129,2.448,0.157,3.569,0.157
	c1.11,0,2.326-0.042,3.637-0.157c3.705-0.33,6.095-5.836,6.607-7.274c3.846-7.411,13.189-24.89,13.189-24.89V111.3
	c7.296,2.409,14.863,0,14.863,0V33.221C390.101,33.221,389.55,33.139,388.667,33.094"/>
<path fill="#fff" d="M150.87,43.336c0.258-0.565,1.056-2.124,1.056-2.124l-9.016-14.241c0,0-2.495,4.363-2.971,5.279
	c0,0-6.221,9.641-7.745,25.907c-0.665,7.022,1.155,16.58,1.483,18.224c0.032,0.16,0.051,0.248,0.051,0.248
	c0.146,0.646,0.279,1.223,0.402,1.759c0.498,2.948,0.8,8.63-2.814,13.497c-2.64,3.279-6.953,6.778-13.632,6.778
	c-15.946,0-17.417-10.625-17.417-16.157V32.81c-2-0.2-2.564-0.354-3.93-0.456c-1.366-0.098-2.713-0.154-3.826-0.154
	c-1.109,0-2.233,0.056-3.599,0.154c-1.361,0.102-2.645,0.256-3.645,0.456v47.35c-0.375,13.936,7.343,29.904,27.802,31.326
	c25.921,1.794,31.946-12.711,33.867-17.474c1.701-4.325,2.957-9.334,1.791-18.584c-0.836-4.223-2.259-5.724-1.657-16.75
	C147.275,54.911,148.514,48.52,150.87,43.336"/>
<path fill="#fff" d="M304.267,32.81c-1-0.2-2.279-0.354-3.643-0.456c-1.364-0.097-2.562-0.154-3.68-0.154
	c-1.111,0-2.473,0.057-3.837,0.154c-1.368,0.102-2.841,0.256-3.841,0.456v49.696c0,5.532-1.543,16.157-17.489,16.157
	c-7.514,0-12.245-4.432-14.684-7.991c-2.959-5.302-1.966-11.661-1.56-13.648c0.031-0.134,0.078-0.254,0.11-0.395
	c0,0,2.271-10.768,1.542-18.472c-1.525-16.266-7.74-25.907-7.74-25.907c-0.476-0.916-3.121-5.279-3.121-5.279l-8.931,14.112
	c0,0,0.853,1.658,1.125,2.253c2.351,5.184,3.615,11.575,3.822,15.343c0.601,11.025-1.568,14.41-2.169,18.672
	c-0.199,1.415-2.656,15.745,8.094,25.857v-0.002c5,4.841,12.909,9.34,28.223,8.281c20.459-1.423,28.34-13.329,27.777-31.327V32.81z"
	/>
<path fill="#fff" d="M225.501,97.842c-1.979,1.802-4.721,3.729-5.797,4.434c-7.746,5.096-18.687,7.842-27.025,7.297
	c-11.579-0.765-17.354-4.215-17.354-4.215s43.293-66.39,58.635-91.417c-16.793-13.821-47.19-21.576-74.999-2.831
	c-1.284,0.867-2.585,1.805-3.801,2.816c-0.254,0.211,7.876,12.718,7.989,12.621c9.028-7.805,18.373-10.865,27.36-11.687
	c12.852-1.174,22.69,3.81,22.69,3.81s-53.089,84.169-58.791,91.875c7.539,6.111,20.234,13.284,35.961,14.428
	c24.601,1.773,42.187-12.171,43.708-13.882L225.501,97.842z"/>
</svg>
