<?xml version="1.0" encoding="utf-8"?>
<!-- Generator: Adobe Illustrator 16.0.0, SVG Export Plug-In . SVG Version: 6.00 Build 0)  -->
<!DOCTYPE svg PUBLIC "-//W3C//DTD SVG 1.0//EN" "http://www.w3.org/TR/2001/REC-SVG-20010904/DTD/svg10.dtd" [
	<!ENTITY ns_flows "http://ns.adobe.com/Flows/1.0/">
	<!ENTITY ns_extend "http://ns.adobe.com/Extensibility/1.0/">
	<!ENTITY ns_ai "http://ns.adobe.com/AdobeIllustrator/10.0/">
	<!ENTITY ns_graphs "http://ns.adobe.com/Graphs/1.0/">
]>
<svg version="1.0" id="Layer_1" xmlns:x="&ns_extend;" xmlns:i="&ns_ai;" xmlns:graph="&ns_graphs;"
	 xmlns="http://www.w3.org/2000/svg" xmlns:xlink="http://www.w3.org/1999/xlink" xmlns:a="http://ns.adobe.com/AdobeSVGViewerExtensions/3.0/"
	 x="0px" y="0px" width="79.668px" height="125.128px" viewBox="0 0 79.668 125.128" enable-background="new 0 0 79.668 125.128"
	 xml:space="preserve">
<path fill="#010101" d="M71.092,97.842c-1.98,1.802-4.722,3.729-5.799,4.434c-7.744,5.096-18.686,7.842-27.024,7.297
	c-11.579-0.765-17.354-4.215-17.354-4.215s43.293-66.39,58.636-91.417C62.758,0.12,32.36-7.636,4.552,11.109
	c-1.284,0.867-2.585,1.805-3.801,2.816C0.497,14.136,8.627,26.644,8.74,26.546c9.028-7.805,18.373-10.865,27.36-11.687
	c12.852-1.174,22.69,3.81,22.69,3.81S5.702,102.839,0,110.545c7.539,6.111,20.234,13.284,35.96,14.428
	c24.602,1.773,42.188-12.171,43.708-13.882L71.092,97.842z"/>
</svg>
