<?xml version="1.0" encoding="utf-8"?>
<!-- Generator: Adobe Illustrator 16.0.0, SVG Export Plug-In . SVG Version: 6.00 Build 0)  -->
<!DOCTYPE svg PUBLIC "-//W3C//DTD SVG 1.1//EN" "http://www.w3.org/Graphics/SVG/1.1/DTD/svg11.dtd">
<svg version="1.1" id="Layer_1" xmlns="http://www.w3.org/2000/svg" xmlns:xlink="http://www.w3.org/1999/xlink" x="0px" y="0px"
	 width="390.102px" height="125.128px" viewBox="0 0 390.102 125.128" enable-background="new 0 0 390.102 125.128"
	 xml:space="preserve">
<path fill="#85A6D6" d="M33.921,111.382c1.263,0.133,2.456,0.158,3.569,0.158c1.109,0,2.327-0.037,3.642-0.158
	c3.703-0.322,6.096-5.834,6.601-7.27c7.402-18.976,27.699-71.048,27.699-71.048c-1.422-0.202-2.824-0.355-4.241-0.455
	c-1.424-0.1-3.8-0.154-3.8-0.154s-6.779,0.407-7.896,0.609l-21.396,64.21l-21.25-64.21c-1.119-0.202-2.456-0.355-4.023-0.455
	c-1.572-0.1-3.013-0.154-4.328-0.154c-1.214,0-2.582,0.054-4.096,0.154c-1.52,0.1-2.99,0.253-4.402,0.455
	c0,0,20.105,51.817,27.506,70.919C28.408,105.895,30.82,111.066,33.921,111.382"/>
<path fill="#85A6D6" d="M388.667,33.094c-1.058-0.131-2.115-0.261-3.171-0.34c-1.422-0.105-2.679-0.15-3.795-0.15
	c-1.319,0-2.679,0.045-4.099,0.15c-1.414,0.103-2.682,0.252-3.797,0.455l-21.4,44.826l-21.25-44.823
	c-1.111-0.199-2.451-0.355-4.023-0.458c-1.567-0.098-3.009-0.15-4.321-0.15c-1.218,0-2.58,0.052-4.099,0.15
	c-1.145,0.08-2.231,0.213-3.319,0.345c-0.821,0.046-1.33,0.122-1.33,0.122v77.999c0,0,7.461,2.55,14.871,0V60.576
	c0,0,8.772,16.443,12.884,24.167c0.898,1.911,3.319,7.077,6.418,7.402c1.264,0.129,2.448,0.157,3.569,0.157
	c1.109,0,2.325-0.042,3.637-0.157c3.705-0.33,6.095-5.836,6.606-7.273c3.847-7.412,13.189-24.891,13.189-24.891V111.3
	c7.296,2.408,14.863,0,14.863,0V33.221C390.101,33.221,389.55,33.139,388.667,33.094"/>
<path fill="#85A6D6" d="M150.87,43.336c0.258-0.565,1.056-2.124,1.056-2.124l-9.016-14.241c0,0-2.495,4.363-2.971,5.279
	c0,0-6.222,9.641-7.745,25.907c-0.665,7.022,1.155,16.58,1.482,18.223c0.032,0.16,0.052,0.248,0.052,0.248
	c0.146,0.646,0.278,1.224,0.401,1.76c0.498,2.947,0.801,8.63-2.813,13.496c-2.641,3.279-6.953,6.779-13.632,6.779
	c-15.946,0-17.417-10.625-17.417-16.158V32.81c-2-0.2-2.564-0.354-3.931-0.456c-1.365-0.098-2.713-0.154-3.826-0.154
	c-1.108,0-2.232,0.056-3.599,0.154c-1.361,0.102-2.645,0.256-3.645,0.456v47.35c-0.375,13.937,7.343,29.904,27.802,31.326
	c25.921,1.794,31.946-12.711,33.867-17.474c1.701-4.325,2.957-9.334,1.791-18.584c-0.836-4.224-2.26-5.724-1.657-16.75
	C147.275,54.911,148.514,48.52,150.87,43.336"/>
<path fill="#85A6D6" d="M304.267,32.81c-1-0.2-2.279-0.354-3.644-0.456c-1.364-0.097-2.562-0.154-3.68-0.154
	c-1.111,0-2.473,0.057-3.837,0.154c-1.368,0.102-2.841,0.256-3.841,0.456v49.695c0,5.533-1.543,16.158-17.489,16.158
	c-7.514,0-12.245-4.433-14.685-7.992c-2.959-5.301-1.966-11.66-1.56-13.647c0.031-0.134,0.078-0.254,0.11-0.396
	c0,0,2.271-10.768,1.542-18.471c-1.525-16.266-7.74-25.907-7.74-25.907c-0.477-0.916-3.121-5.279-3.121-5.279l-8.931,14.112
	c0,0,0.853,1.658,1.125,2.253c2.351,5.184,3.614,11.575,3.821,15.343c0.602,11.025-1.567,14.41-2.169,18.672
	c-0.198,1.415-2.655,15.745,8.095,25.857v-0.002c5,4.84,12.908,9.34,28.223,8.28c20.459-1.423,28.34-13.329,27.777-31.327V32.81
	H304.267z"/>
<path fill="#85A6D6" d="M225.501,97.841c-1.979,1.803-4.721,3.729-5.797,4.435c-7.746,5.097-18.687,7.843-27.024,7.298
	c-11.579-0.766-17.354-4.216-17.354-4.216s43.293-66.39,58.635-91.417C217.167,0.12,186.77-7.635,158.961,11.11
	c-1.284,0.867-2.585,1.805-3.801,2.816c-0.254,0.211,7.876,12.718,7.989,12.621c9.027-7.805,18.373-10.865,27.359-11.687
	c12.853-1.174,22.69,3.81,22.69,3.81s-53.089,84.169-58.791,91.875c7.539,6.111,20.234,13.285,35.961,14.429
	c24.602,1.772,42.188-12.171,43.708-13.882L225.501,97.841z"/>
<g opacity="0.2">
	<g>
		<g>
			<defs>
				<rect id="SVGID_1_" x="130.591" y="79.061" width="128.373" height="26.655"/>
			</defs>
			<clipPath id="SVGID_2_">
				<use xlink:href="#SVGID_1_"  overflow="visible"/>
			</clipPath>
			<path clip-path="url(#SVGID_2_)" fill="#010101" d="M257.163,90.671c-2.061-3.692-2.221-7.896-1.99-10.778
				c-2.053,7.335-5.397,14.128-9.79,20.11c0.838,1.101,1.789,2.175,2.885,3.205v-0.002c0.887,0.857,1.872,1.703,2.969,2.51
				c3.006-3.961,5.6-8.248,7.729-12.797C258.265,92.164,257.662,91.4,257.163,90.671"/>
		</g>
		<g>
			<defs>
				<rect id="SVGID_3_" x="130.591" y="79.061" width="128.373" height="26.655"/>
			</defs>
			<clipPath id="SVGID_4_">
				<use xlink:href="#SVGID_3_"  overflow="visible"/>
			</clipPath>
			<path clip-path="url(#SVGID_4_)" fill="#010101" d="M134.231,79.061c0.419,3.082,0.441,8.303-2.915,12.825
				c-0.227,0.279-0.471,0.562-0.726,0.844c2.127,4.583,4.723,8.904,7.738,12.891c2.529-1.906,4.343-4.027,5.653-6.004
				C139.564,93.5,136.218,86.559,134.231,79.061"/>
		</g>
	</g>
</g>
</svg>
