<?xml version="1.0" encoding="utf-8"?>
<!-- Generator: Adobe Illustrator 17.0.0, SVG Export Plug-In . SVG Version: 6.00 Build 0)  -->
<!DOCTYPE svg PUBLIC "-//W3C//DTD SVG 1.1//EN" "http://www.w3.org/Graphics/SVG/1.1/DTD/svg11.dtd">
<svg version="1.1" id="Layer_1" xmlns="http://www.w3.org/2000/svg" xmlns:xlink="http://www.w3.org/1999/xlink" x="0px" y="0px"
	 width="47.42px" height="26px" viewBox="0 0 47.42 26" enable-background="new 0 0 47.42 26" xml:space="preserve">
<path fill="#FFFFFF" d="M47.42,7.144h-4.85l-3.994,5.943l-4.104-5.943h-5.096l6.475,9.022l-6.437,9.375h4.845l4.033-6.156
	l4.104,6.156h4.988l-6.297-9.342L47.42,7.144z M27.464,7.144h-4.49v18.397h4.49V7.144z M27.57,0.035h-4.738V4.6h4.738V0.035z
	 M20.131,18.076c0-4.285-3.148-6.721-6.902-7.252c-1.625-0.211-3.852-0.389-5.445-0.639C6.297,9.939,5.234,9.091,5.234,7.465
	c0-0.918,0.322-1.557,0.852-2.123c1.023-1.062,2.652-1.381,4.066-1.381c1.346,0,3.008,0.496,3.821,1.346
	c0.601,0.635,1.06,1.588,1.097,2.473h4.671c-0.038-2.084-1.063-3.922-2.548-5.342C15.491,0.848,12.879,0,10.189,0
	C7.252,0,4.494,1.025,2.832,2.65c-1.311,1.31-2.191,2.974-2.191,4.955c0,4.174,2.898,6.438,6.363,7.004
	c1.667,0.279,3.855,0.35,5.554,0.674c1.558,0.281,2.973,1.129,2.973,2.969c0,1.205-0.425,1.805-0.991,2.404
	c-0.955,0.99-2.617,1.346-4.35,1.346c-1.451,0-3.149-0.283-4.209-1.346c-0.746-0.74-1.312-1.838-1.312-3.076H0
	c0,2.373,1.133,4.494,2.621,5.838C4.668,25.289,7.465,26,10.119,26c3.076,0,6.014-0.776,7.921-2.69
	C19.279,22.074,20.131,20.412,20.131,18.076"/>
</svg>
