<?xml version="1.0" encoding="utf-8"?>
<!-- Generator: Adobe Illustrator 16.0.0, SVG Export Plug-In . SVG Version: 6.00 Build 0)  -->
<!DOCTYPE svg PUBLIC "-//W3C//DTD SVG 1.1//EN" "http://www.w3.org/Graphics/SVG/1.1/DTD/svg11.dtd">
<svg version="1.1" id="Layer_1" xmlns="http://www.w3.org/2000/svg" xmlns:xlink="http://www.w3.org/1999/xlink" x="0px" y="0px"
	 width="847.633px" height="464.75px" viewBox="0 0 847.633 464.75" enable-background="new 0 0 847.633 464.75"
	 xml:space="preserve">
<path fill="#FFFFFF" d="M847.633,127.711h-86.688L689.55,233.945l-73.352-106.234h-91.086l115.734,161.258L525.794,456.547h86.6
	l72.094-110.039l73.352,110.039h89.166L734.447,289.562L847.633,127.711z M490.916,127.711h-80.244v328.836h80.244V127.711z
	 M492.819,0.633h-84.695v81.586h84.695V0.633z M359.84,323.118c0-76.603-56.279-120.133-123.38-129.633
	c-29.047-3.766-68.864-6.945-97.335-11.414c-26.568-4.398-45.562-19.57-45.562-48.633c0-16.406,5.762-27.828,15.223-37.953
	c18.294-18.992,47.409-24.68,72.679-24.68c24.062,0,53.772,8.867,68.331,24.055c10.719,11.344,18.923,28.383,19.577,44.195h83.501
	c-0.682-37.25-19.011-70.102-45.543-95.484C276.923,15.156,230.211,0,182.137,0C129.629,0,80.333,18.328,50.622,47.375
	c-23.427,23.43-39.171,53.156-39.171,88.578c0,74.602,51.81,115.07,113.742,125.195c29.799,4.992,68.936,6.25,99.309,12.039
	c27.808,5.031,53.102,20.181,53.102,53.07c0,21.539-7.593,32.258-17.718,42.978c-17.072,17.702-46.782,24.055-77.749,24.055
	c-25.94,0-56.278-5.062-75.236-24.055C93.564,356,83.439,336.383,83.439,314.25H0c0,42.414,20.249,80.328,46.852,104.352
	c36.588,33.445,86.582,46.148,134.028,46.148c54.978,0,107.494-13.875,141.604-48.086
	C344.617,394.579,359.84,364.868,359.84,323.118"/>
</svg>
